<svg width="55" height="57" fill="none" xmlns="http://www.w3.org/2000/svg"><path d="M39.845.664h0a14.84 14.84 0 0114.84 15.858 15.18 15.18 0 01-15.364 13.822v0H2.12a1.636 1.636 0 010-3.273h37.325A11.85 11.85 0 0051.41 17.032h0l.001-.004a11.598 11.598 0 00-22.979-3.163 1.636 1.636 0 01-1.636 1.389v0h-.005a1.638 1.638 0 01-1.636-1.865A14.84 14.84 0 0139.844.664z" fill="#303E48" stroke="#fff" stroke-width=".5"/><path d="M39.484 47.514h0l-7.58-9.376v-.25h0H2.12a1.636 1.636 0 010-3.273h29.783a11.067 11.067 0 11-10.9 13.195 1.634 1.634 0 011.637-1.877h.006a1.637 1.637 0 011.636 1.359h0l.002.01a7.795 7.795 0 0015.2.213zM12.576 22.515v0H2.272a1.636 1.636 0 010-3.272H12.66a5.173 5.173 0 005.365-4.48h0l.002-.01a4.965 4.965 0 00-9.673-1.985l-.003.008-.002.008a1.637 1.637 0 01-1.636 1.243h-.018a1.636 1.636 0 01-1.636-2.11v-.002A8.238 8.238 0 0121.15 15.08a8.501 8.501 0 01-8.575 7.436z" fill="#3FB3DD" stroke="#fff" stroke-width=".5"/></svg>