<svg width="85" height="26" fill="none" xmlns="http://www.w3.org/2000/svg"><path d="M52.735 20.26c-4.94 3.64-12.1 5.583-18.264 5.583-8.643 0-16.424-3.197-22.31-8.514-.463-.418-.049-.988.506-.662 6.353 3.696 14.208 5.92 22.322 5.92 5.473 0 11.493-1.133 17.028-3.482.836-.355 1.535.548.718 1.154z" fill="#F90"/><path d="M54.788 17.912c-.629-.807-4.173-.381-5.764-.193-.485.06-.559-.362-.122-.666 2.823-1.987 7.455-1.413 7.995-.747.54.67-.14 5.313-2.793 7.53-.407.34-.796.158-.614-.293.595-1.487 1.931-4.821 1.298-5.631z" fill="#F90"/><path d="M49.129 3.025V1.094c0-.292.222-.489.488-.489h8.647c.278 0 .5.2.5.489v1.654c-.004.277-.237.64-.652 1.213l-4.48 6.398c1.665-.041 3.422.207 4.932 1.058.34.192.433.473.459.751v2.06c0 .282-.311.611-.637.441-2.66-1.395-6.194-1.546-9.135.015-.3.163-.614-.163-.614-.444v-1.957c0-.315.003-.851.318-1.329l5.191-7.444h-4.518c-.277 0-.5-.196-.5-.485zm-31.54 12.053h-2.63a.497.497 0 01-.47-.448V1.13c0-.27.225-.485.506-.485h2.453a.495.495 0 01.478.452V2.86h.048c.64-1.706 1.842-2.502 3.463-2.502 1.646 0 2.675.796 3.415 2.502.636-1.706 2.083-2.502 3.633-2.502 1.103 0 2.31.455 3.046 1.477.832 1.136.662 2.786.662 4.232l-.004 8.522c0 .27-.226.488-.507.488h-2.627a.5.5 0 01-.473-.488V7.434c0-.57.051-1.99-.074-2.531-.197-.907-.785-1.162-1.547-1.162-.636 0-1.302.426-1.572 1.106-.27.681-.245 1.82-.245 2.587v7.156c0 .27-.225.488-.507.488H22.01a.497.497 0 01-.473-.488l-.004-7.156c0-1.506.248-3.722-1.62-3.722-1.891 0-1.817 2.16-1.817 3.722v7.156c0 .27-.226.488-.507.488zM66.213.36c3.904 0 6.016 3.352 6.016 7.614 0 4.118-2.335 7.385-6.016 7.385-3.833 0-5.92-3.352-5.92-7.53 0-4.203 2.113-7.47 5.92-7.47zm.022 2.756c-1.939 0-2.06 2.642-2.06 4.288 0 1.65-.027 5.173 2.038 5.173 2.039 0 2.135-2.842 2.135-4.573 0-1.14-.048-2.502-.392-3.582-.296-.94-.885-1.306-1.72-1.306zm11.053 11.962h-2.62a.5.5 0 01-.473-.488l-.004-13.505a.498.498 0 01.507-.44h2.439c.229.01.418.166.47.377v2.064h.048C78.39 1.24 79.423.36 81.24.36c1.18 0 2.33.426 3.07 1.591.69 1.08.69 2.897.69 4.204v8.498a.505.505 0 01-.508.426h-2.638a.498.498 0 01-.466-.425V7.319c0-1.476.17-3.637-1.647-3.637-.64 0-1.228.43-1.52 1.08-.37.825-.418 1.647-.418 2.557v7.27a.506.506 0 01-.515.489zM7.752 8.628v-.57c-1.902 0-3.911.407-3.911 2.649 0 1.136.588 1.905 1.598 1.905.74 0 1.402-.455 1.82-1.195.518-.91.493-1.765.493-2.79zm2.652 6.412a.55.55 0 01-.621.063c-.873-.726-1.029-1.062-1.51-1.754-1.443 1.472-2.464 1.913-4.336 1.913-2.213 0-3.937-1.366-3.937-4.1 0-2.135 1.158-3.589 2.805-4.3 1.428-.628 3.422-.74 4.947-.913v-.34c0-.626.048-1.366-.319-1.906-.322-.485-.936-.685-1.476-.685-1.003 0-1.898.515-2.116 1.58-.045.237-.219.47-.455.481L.833 4.805C.618 4.757.38 4.583.44 4.255 1.03 1.16 3.822.228 6.323.228c1.28 0 2.953.34 3.963 1.31 1.28 1.194 1.158 2.79 1.158 4.524v4.1c0 1.232.51 1.772.992 2.438.17.237.207.522-.008.7-.536.447-1.49 1.28-2.016 1.746l-.008-.007m31.59-6.411v-.57c-1.902 0-3.911.407-3.911 2.649 0 1.136.588 1.905 1.598 1.905.74 0 1.403-.455 1.82-1.195.519-.91.493-1.765.493-2.79zm2.653 6.412a.55.55 0 01-.622.063c-.873-.726-1.029-1.062-1.51-1.754-1.443 1.472-2.464 1.913-4.336 1.913-2.213 0-3.937-1.366-3.937-4.1 0-2.135 1.158-3.589 2.805-4.3 1.428-.628 3.422-.74 4.947-.913v-.34c0-.626.048-1.366-.319-1.906-.321-.485-.936-.685-1.476-.685-1.002 0-1.898.515-2.116 1.58-.045.237-.218.47-.455.481l-2.553-.274c-.215-.048-.452-.222-.393-.55.589-3.094 3.382-4.026 5.883-4.026 1.28 0 2.953.34 3.963 1.31 1.28 1.194 1.158 2.79 1.158 4.524v4.1c0 1.232.51 1.772.992 2.438.17.237.207.522-.008.7-.536.447-1.49 1.28-2.016 1.746l-.007-.007" fill="#fff"/></svg>