<svg width="46" height="33" fill="none" xmlns="http://www.w3.org/2000/svg"><path d="M44.586 15.909h-3.793c1.577-3.58 1.406-6.479.81-8.44C40.58 3.976 37.127.183 32.013.183c-1.364 0-2.728.255-4.134.767-2.43.895-4.05 1.875-4.774 2.387-.725-.512-2.302-1.492-4.774-2.387-1.406-.512-2.813-.767-4.134-.767-5.114 0-8.567 3.793-9.59 7.288-.596 2.088-.81 5.242 1.194 9.206H1.198a.673.673 0 00-.682.682c0 .384.298.682.682.682H6.61c.214.384.47.767.768 1.15 4.432 6.394 14.065 13.341 15.812 13.767V33s.043 0 .085-.043h.128v-.042c1.492-.725 10.74-6.692 15.6-13.767a15.68 15.68 0 001.193-1.918h4.475a.673.673 0 00.682-.682c0-.383-.383-.64-.767-.64zm-6.82 2.514C33.25 25.03 24.939 30.358 23.149 31.509c-1.833-1.15-10.102-6.52-14.662-13.084l-.256-.384h6.265a.703.703 0 00.64-.384l2.855-5.626 4.476 11.466c.085.255.383.426.639.426h.043c.298 0 .554-.213.639-.512l3.921-13.425 2.088 6.776a.695.695 0 00.555.47c.255.042.511-.086.681-.3l1.663-2.429L34.1 16.89a.68.68 0 00.597.341h3.836c-.256.426-.512.81-.767 1.194zm1.535-2.514h-4.177l-1.747-2.984a.68.68 0 00-.597-.34c-.256 0-.469.085-.597.298l-1.449 2.13-2.344-7.628c-.085-.299-.384-.47-.682-.512a.73.73 0 00-.682.512l-3.964 13.681-4.305-10.996a.641.641 0 00-.596-.426c-.299 0-.512.127-.64.383l-3.367 6.606H7.378c-1.705-3.11-2.174-6.094-1.407-8.78.895-3.026 3.836-6.265 8.269-6.265 1.193 0 2.43.256 3.665.682 3.111 1.15 4.774 2.472 4.816 2.472a.648.648 0 00.853 0s1.662-1.321 4.816-2.472a10.304 10.304 0 013.665-.682c4.39 0 7.374 3.24 8.269 6.265.724 2.473.34 5.2-1.023 8.056z" fill="#fff"/></svg>