<svg width="65" height="66" fill="none" xmlns="http://www.w3.org/2000/svg"><path d="M60.697.998h-37.12a4.308 4.308 0 00-4.304 4.303v50.558a4.31 4.31 0 003.334 4.191l.31 2.641a3.228 3.228 0 003.205 2.85h2.221a3.22 3.22 0 002.853-1.719 1.076 1.076 0 10-1.901-1.006 1.074 1.074 0 01-.952.573h-2.22a1.076 1.076 0 01-1.069-.95l-.268-2.277h34.701l-.268 2.277c-.064.542-.523.95-1.068.95H55.93a1.07 1.07 0 01-.904-.493 1.076 1.076 0 00-1.808 1.168 3.216 3.216 0 002.712 1.477h2.22a3.228 3.228 0 003.206-2.85l.31-2.64A4.31 4.31 0 0065 55.859V5.301A4.308 4.308 0 0060.697.998zm2.151 54.861a2.154 2.154 0 01-2.151 2.152h-37.12a2.154 2.154 0 01-2.152-2.152V17.65h37.567a1.076 1.076 0 100-2.15H21.425V5.3c0-1.186.965-2.152 2.151-2.152h37.12c1.187 0 2.152.966 2.152 2.152v50.558z" fill="#303E48"/><path d="M31.552 5.465a3.986 3.986 0 00-3.982 3.982 3.986 3.986 0 003.982 3.982 3.986 3.986 0 003.982-3.982 3.986 3.986 0 00-3.982-3.982zm0 5.812a1.83 1.83 0 11.002-3.658 1.83 1.83 0 01-.002 3.658zm13.645-2.906h-6.125a1.076 1.076 0 000 2.152h6.124a1.076 1.076 0 100-2.152zM42.134 23.98a1.075 1.075 0 100 2.15 1.075 1.075 0 000-2.15zm-12.662 0a1.076 1.076 0 10-.004 2.152 1.076 1.076 0 00.004-2.152zm6.33 0a1.075 1.075 0 100 2.15 1.075 1.075 0 000-2.15zm19 0a1.075 1.075 0 100 2.15 1.075 1.075 0 000-2.15zm-6.338 0a1.076 1.076 0 10-.003 2.152 1.076 1.076 0 00.003-2.152zm-6.33 8.067a1.075 1.075 0 100 2.15 1.075 1.075 0 000-2.15zm-12.662 0a1.076 1.076 0 10-.004 2.151 1.076 1.076 0 00.004-2.151zm6.33 0a1.075 1.075 0 100 2.15 1.075 1.075 0 000-2.15zm19 0a1.075 1.075 0 100 2.15 1.075 1.075 0 000-2.15zm-6.338 0a1.076 1.076 0 10-.003 2.151 1.076 1.076 0 00.003-2.151zm-6.33 9.413a1.075 1.075 0 100 2.151 1.075 1.075 0 000-2.15zm-12.662 0a1.076 1.076 0 10-.003 2.152 1.076 1.076 0 00.003-2.151zm6.33 0a1.075 1.075 0 100 2.151 1.075 1.075 0 000-2.15zm19 0a1.075 1.075 0 100 2.151 1.075 1.075 0 000-2.15zm-6.338 0a1.076 1.076 0 10-.003 2.152 1.076 1.076 0 00.003-2.151zm-6.33 8.07a1.075 1.075 0 100 2.15 1.075 1.075 0 000-2.15zm-12.662 0a1.076 1.076 0 10-.004 2.15 1.076 1.076 0 00.004-2.15zm6.33 0a1.075 1.075 0 100 2.15 1.075 1.075 0 000-2.15zm19 0a1.075 1.075 0 100 2.15 1.075 1.075 0 000-2.15zm-6.338 0a1.076 1.076 0 10-.003 2.15 1.076 1.076 0 00.003-2.15zM2.16 24.041c3.098-2.223 6.063.973 10.773.78a1.076 1.076 0 10-.088-2.15c-4.228.169-7.772-3.368-11.94-.378a1.076 1.076 0 001.255 1.748zm13.107 10.566c-4.223 1.615-7.258-1.106-10.802-1.068a1.076 1.076 0 10.026 2.152c2.978-.038 6.519 2.847 11.545.926a1.076 1.076 0 00-.769-2.01zm0 12.443c-5.589 2.137-9.426-3.41-14.361.131A1.076 1.076 0 102.16 48.93c3.73-2.677 7.498 2.569 13.875.13a1.076 1.076 0 00-.768-2.009z" fill="#3FB3DD"/></svg>