<svg width="46" height="36" fill="none" xmlns="http://www.w3.org/2000/svg"><path d="M37.525 1.547c-4.123 0-7.478 3.355-7.478 7.478a.748.748 0 101.496 0 5.99 5.99 0 015.982-5.983 5.99 5.99 0 015.983 5.983 5.99 5.99 0 01-5.983 5.982H6.865a.748.748 0 100 1.496h30.66c4.124 0 7.478-3.355 7.478-7.478 0-4.123-3.355-7.478-7.478-7.478zm-.007 17.949H9.85a.748.748 0 100 1.496h27.67a5.99 5.99 0 015.982 5.982 5.99 5.99 0 01-5.983 5.983 5.99 5.99 0 01-5.982-5.983.748.748 0 10-1.496 0c0 4.124 3.355 7.478 7.478 7.478 4.124 0 7.478-3.354 7.478-7.478 0-4.123-3.354-7.478-7.478-7.478zm-32.151 0H.881a.748.748 0 100 1.496h4.486a.748.748 0 100-1.496zM4.62 9.775H.88a.748.748 0 100 1.496h3.74a.748.748 0 100-1.496z" fill="#fff"/><path d="M21.815 24.732H6.111a.748.748 0 100 1.496h15.704a3.743 3.743 0 013.74 3.74 3.743 3.743 0 01-3.74 3.738 3.743 3.743 0 01-3.739-3.739.748.748 0 10-1.496 0 5.24 5.24 0 005.235 5.235 5.241 5.241 0 005.235-5.235 5.241 5.241 0 00-5.235-5.235zM21.812.8a5.24 5.24 0 00-5.235 5.235.748.748 0 101.496 0 3.743 3.743 0 013.74-3.739 3.743 3.743 0 013.738 3.74 3.743 3.743 0 01-3.739 3.738H9.1a.748.748 0 100 1.496h12.713a5.24 5.24 0 005.235-5.235A5.24 5.24 0 0021.812.801z" fill="#fff"/></svg>