<svg width="43" height="44" fill="none" xmlns="http://www.w3.org/2000/svg"><path d="M21.498 6.568a1.26 1.26 0 001.26-1.26V1.26a1.26 1.26 0 00-2.52 0v4.048c0 .696.564 1.26 1.26 1.26zm0 29.866a1.26 1.26 0 00-1.26 1.26v4.047a1.26 1.26 0 102.52 0v-4.048a1.26 1.26 0 00-1.26-1.26zM41.742 20.24h-4.049a1.26 1.26 0 000 2.52h4.049a1.26 1.26 0 100-2.52zM6.568 21.5a1.26 1.26 0 00-1.26-1.26H1.26a1.26 1.26 0 000 2.52h4.048a1.26 1.26 0 001.26-1.26zm27.274-10.56l2.862-2.862a1.26 1.26 0 10-1.782-1.781L32.06 9.159a1.26 1.26 0 101.782 1.781zM9.157 32.059L6.295 34.92a1.26 1.26 0 101.781 1.782l2.862-2.862a1.26 1.26 0 10-1.781-1.782zm24.685-.001a1.26 1.26 0 00-1.782 1.782l2.862 2.862a1.26 1.26 0 101.782-1.782l-2.862-2.862zM9.157 10.94a1.26 1.26 0 001.781-1.781L8.076 6.297a1.26 1.26 0 10-1.781 1.781l2.862 2.862zm12.345-.145c-5.903 0-10.705 4.802-10.705 10.705 0 5.903 4.802 10.706 10.705 10.706 5.903 0 10.706-4.803 10.706-10.706s-4.803-10.705-10.706-10.705zm0 18.891c-4.513 0-8.185-3.672-8.185-8.186 0-4.513 3.672-8.185 8.185-8.185 4.514 0 8.186 3.672 8.186 8.185 0 4.514-3.672 8.186-8.186 8.186z" fill="#fff"/></svg>