<svg width="32" height="40" fill="none" xmlns="http://www.w3.org/2000/svg"><path d="M31.61.57a.95.95 0 00-1.303.224l-4.435 6.354a2.478 2.478 0 00-.857-.783 2.813 2.813 0 00-2.813 0L8.75 13.445H5.023a4.656 4.656 0 00-4.695 4.658v3.726a4.658 4.658 0 004.658 4.658h3.726l2.627 1.36-7.117 10.21a.95.95 0 00.224 1.305.969.969 0 00.97.067.914.914 0 00.334-.29l7.285-10.416 9.11 4.807a2.98 2.98 0 001.473.41 2.91 2.91 0 001.397-.373 2.683 2.683 0 001.398-2.366V16.296a.931.931 0 10-1.864 0V31.2a.857.857 0 01-.447.745 1.006 1.006 0 01-1.043 0l-8.943-4.713L31.834 1.875A.95.95 0 0031.611.57zM2.192 21.83v-3.727a2.795 2.795 0 012.795-2.795h2.795v9.316H4.986a2.794 2.794 0 01-2.795-2.795zm7.453 3.018v-9.763l13.47-7.08a.987.987 0 01.988 0 .875.875 0 01.447.782.56.56 0 000 .186L12.44 26.32l-2.795-1.472z" fill="#fff"/></svg>