<svg width="67" height="67" fill="none" xmlns="http://www.w3.org/2000/svg"><path d="M46.975 4.137C43.476 2.037 38.847.88 33.941.88c-4.907 0-9.536 1.156-13.035 3.256-3.675 2.205-5.699 5.197-5.699 8.425v42.757c0 3.228 2.024 6.22 5.7 8.425C24.404 65.844 29.033 67 33.94 67c4.906 0 9.535-1.156 13.034-3.255 3.675-2.206 5.7-5.198 5.7-8.426V12.562c0-3.228-2.025-6.22-5.7-8.425zm-1.134 57.718c-3.161 1.896-7.388 2.94-11.9 2.94-4.513 0-8.74-1.044-11.9-2.94-2.968-1.78-4.61-4.085-4.629-6.494a14.197 14.197 0 003.494 2.873c3.5 2.1 8.128 3.256 13.035 3.256 4.906 0 9.535-1.156 13.034-3.256a14.2 14.2 0 003.495-2.873c-.02 2.409-1.661 4.713-4.629 6.494zm4.63-12.046c0 2.423-1.644 4.744-4.63 6.535-3.161 1.897-7.388 2.942-11.9 2.942-4.513 0-8.74-1.045-11.9-2.942-2.986-1.79-4.63-4.112-4.63-6.535V27.811a14.197 14.197 0 003.495 2.874c3.5 2.1 8.128 3.255 13.035 3.255 4.906 0 9.535-1.156 13.034-3.255a14.195 14.195 0 003.495-2.874v21.998zm0-27.55c0 2.424-1.644 4.745-4.63 6.536-3.161 1.897-7.388 2.941-11.9 2.941-4.513 0-8.74-1.044-11.9-2.941-2.986-1.791-4.63-4.112-4.63-6.536v-4.146a14.2 14.2 0 003.495 2.874c3.5 2.1 8.128 3.256 13.035 3.256 4.906 0 9.535-1.156 13.034-3.256a14.2 14.2 0 003.495-2.874v4.146zm-4.63-3.162c-3.161 1.897-7.388 2.942-11.9 2.942-4.513 0-8.74-1.045-11.9-2.942-2.986-1.79-4.63-4.112-4.63-6.535 0-2.424 1.644-4.745 4.63-6.536 3.16-1.896 7.387-2.941 11.9-2.941 4.512 0 8.739 1.045 11.9 2.941 2.986 1.791 4.63 4.113 4.63 6.536 0 2.423-1.644 4.744-4.63 6.536z" fill="#303E48"/><path d="M33.937 7.604c-5.026 0-8.816 2.131-8.816 4.958 0 2.828 3.79 4.96 8.816 4.96 5.026 0 8.816-2.133 8.816-4.96s-3.79-4.958-8.816-4.958zm0 7.713c-4.096 0-6.612-1.604-6.612-2.755 0-1.15 2.515-2.755 6.612-2.755 4.096 0 6.612 1.605 6.612 2.755s-2.516 2.755-6.612 2.755z" fill="#3FB3DD"/><path d="M32.836 37.246h2.204v2.204h-2.204v-2.204zm0 4.408h2.204v2.204h-2.204v-2.204zm0 4.409h2.204v2.203h-2.204v-2.203zm0 4.407h2.204v2.205h-2.204V50.47zm0 4.407h2.204v2.204h-2.204v-2.204zm4.41-17.631h2.204v2.204h-2.204v-2.204zm0 4.408h2.204v2.204h-2.204v-2.204zm0 4.409h2.204v2.203h-2.204v-2.203zm0 4.407h2.204v2.205h-2.204V50.47zm0 4.407h2.204v2.204h-2.204v-2.204zm4.406-17.631h2.204v2.204h-2.204v-2.204zm0 4.408h2.204v2.204h-2.204v-2.204zm0 4.409h2.204v2.203h-2.204v-2.203zm0 4.407h2.204v2.205h-2.204V50.47zm4.407-13.224h2.204v2.204h-2.204v-2.204zm0-4.408h2.204v2.204h-2.204v-2.204zm0 8.816h2.204v2.204h-2.204v-2.204zm0 4.409h2.204v2.203h-2.204v-2.203zm-17.633-8.817h2.204v2.204h-2.204v-2.204zm0 4.408h2.204v2.204h-2.204v-2.204zm0 4.409h2.204v2.203h-2.204v-2.203zm0 4.407h2.204v2.205h-2.204V50.47zm0 4.407h2.204v2.204h-2.204v-2.204zM24.02 37.246h2.204v2.204H24.02v-2.204zm0 4.408h2.204v2.204H24.02v-2.204zm0 4.409h2.204v2.203H24.02v-2.203zm0 4.407h2.204v2.205H24.02V50.47zm-4.407-13.224h2.204v2.204h-2.204v-2.204zm0-4.408h2.204v2.204h-2.204v-2.204zm0 8.816h2.204v2.204h-2.204v-2.204zm0 4.409h2.204v2.203h-2.204v-2.203z" fill="#303E48"/><path d="M60.385 52.674a2.207 2.207 0 01-2.204-2.204h-2.204a4.408 4.408 0 104.408-4.407h-5.51v2.203h5.51a2.204 2.204 0 010 4.408zm2.204-22.039a4.412 4.412 0 00-4.408 4.408h2.204a2.204 2.204 0 112.204 2.204h-7.714v2.204h7.714a4.408 4.408 0 000-8.816zm-7.714 11.019h12.122v2.204H54.875v-2.204zM7.494 48.267h5.51v-2.205h-5.51a4.408 4.408 0 104.408 4.408H9.698a2.204 2.204 0 11-2.204-2.203zM5.287 39.45H13v-2.203H5.287a2.204 2.204 0 112.204-2.204h2.204a4.408 4.408 0 10-4.408 4.408zM.879 41.654H13v2.204H.879v-2.204zm36.018-15.371a9.407 9.407 0 01-5.915 0 1.102 1.102 0 00-.697 2.091c2.373.786 4.936.786 7.309 0a1.102 1.102 0 10-.697-2.09z" fill="#3FB3DD"/></svg>