<svg width="55" height="57" viewBox="0 0 55 57" fill="none" xmlns="http://www.w3.org/2000/svg">
<path d="M39.8449 0.664106L39.8456 0.664104C41.8833 0.659282 43.9001 1.07417 45.7704 1.88291C47.6408 2.69165 49.3245 3.87691 50.7167 5.36484C52.1089 6.85277 53.1798 8.61148 53.8626 10.5314C54.5451 12.4505 54.8252 14.4896 54.6855 16.5216C54.3433 20.3394 52.5693 23.8865 49.7197 26.4504C46.8696 29.0149 43.1545 30.4058 39.3209 30.3436V30.3436H39.3168H2.12059C1.68664 30.3436 1.27046 30.1712 0.963613 29.8644C0.656762 29.5575 0.484375 29.1413 0.484375 28.7074C0.484375 28.2734 0.656762 27.8573 0.963613 27.5504C1.27046 27.2436 1.68664 27.0712 2.12059 27.0712H39.4462C42.3178 27.1322 45.1139 26.1481 47.3144 24.302C49.5156 22.4553 50.9709 19.8717 51.4094 17.0321L51.4094 17.0321L51.41 17.028C51.8292 13.9808 51.0208 10.8919 49.1625 8.44072C47.3043 5.98956 44.5484 4.37699 41.5012 3.95774C38.454 3.53849 35.365 4.34692 32.9139 6.20517C30.4632 8.06307 28.8508 10.8183 28.4311 13.8648C28.3716 14.2543 28.1736 14.6093 27.8734 14.8645C27.5727 15.12 27.1898 15.2583 26.7952 15.2539V15.2538L26.7899 15.2539C26.5543 15.2562 26.321 15.2076 26.1059 15.1115C25.8908 15.0153 25.6991 14.8738 25.5437 14.6967C25.3884 14.5196 25.2731 14.311 25.2058 14.0853C25.1385 13.8595 25.1207 13.6219 25.1536 13.3887C25.6625 9.85543 27.4278 6.62396 30.1261 4.28682C32.8245 1.94956 36.275 0.663372 39.8449 0.664106Z" fill="#303E48" stroke="white" stroke-width="0.5"/>
<path d="M39.4844 47.5145L39.4844 47.5143L31.904 38.1377V37.8877H31.9039H2.12059C1.68664 37.8877 1.27046 37.7153 0.963613 37.4084C0.656762 37.1016 0.484375 36.6854 0.484375 36.2515C0.484375 35.8175 0.656762 35.4013 0.963613 35.0945C1.27046 34.7876 1.68664 34.6152 2.12059 34.6152H31.9036C33.9998 34.6227 36.0508 35.2254 37.8179 36.3532C39.5851 37.481 40.9956 39.0876 41.8853 40.9859C42.7749 42.8842 43.1071 44.9961 42.8432 47.0759C42.5792 49.1556 41.73 51.1176 40.3944 52.7335C39.0587 54.3494 37.2916 55.5527 35.2987 56.2033C33.3058 56.8539 31.1691 56.9252 29.1373 56.4087C27.1054 55.8922 25.2621 54.8092 23.8219 53.2858C22.3828 51.7638 21.4053 49.8646 21.0029 47.8091C20.9682 47.5762 20.9843 47.3386 21.05 47.1125C21.1161 46.8847 21.231 46.674 21.3866 46.495C21.5422 46.316 21.7349 46.173 21.9513 46.0759C22.1677 45.9788 22.4027 45.9299 22.6398 45.9325L22.6398 45.9326L22.6463 45.9325C23.0361 45.9269 23.4151 46.0606 23.7151 46.3095C24.0151 46.5585 24.2163 46.9064 24.2825 47.2906L24.2823 47.2906L24.2844 47.3001C24.6519 49.0284 25.5957 50.5805 26.961 51.702C28.3263 52.8235 30.0321 53.4479 31.7988 53.4728C33.5655 53.4977 35.2883 52.9217 36.6847 51.8391C38.0811 50.7565 39.0682 49.2317 39.4844 47.5145Z" fill="#3FB3DD" stroke="white" stroke-width="0.5"/>
<path d="M12.5758 22.5152V22.5152H12.5717H2.27294C1.83899 22.5152 1.42281 22.3428 1.11596 22.0359C0.809106 21.7291 0.636719 21.3129 0.636719 20.8789C0.636719 20.445 0.809106 20.0288 1.11596 19.722C1.42281 19.4151 1.83899 19.2427 2.27294 19.2427H12.6602C13.9516 19.3023 15.2185 18.8761 16.2115 18.048C17.206 17.2187 17.8532 16.0465 18.0254 14.7631L18.0256 14.7631L18.0265 14.7538C18.1439 13.534 17.806 12.3138 17.0779 11.3281C16.3498 10.3424 15.283 9.66073 14.0826 9.41424C12.8822 9.16775 11.633 9.37385 10.5754 9.99291C9.51779 10.612 8.72646 11.6002 8.35362 12.7676L8.35107 12.7756L8.34905 12.7838C8.25947 13.1468 8.04824 13.4682 7.75054 13.6945C7.45283 13.9207 7.0866 14.0382 6.71283 14.0273L6.70378 14.027L6.69474 14.0274C6.43341 14.0387 6.17318 13.9872 5.93586 13.8772C5.69854 13.7672 5.49105 13.6019 5.33079 13.3952C5.17053 13.1884 5.06217 12.9463 5.0148 12.6891C4.96743 12.4318 4.98242 12.1669 5.05852 11.9167L5.05888 11.9155C5.64508 9.95292 6.94138 8.2791 8.69491 7.22056C10.4484 6.16203 12.5334 5.7947 14.5431 6.19024C16.5528 6.58578 18.3431 7.71581 19.5647 9.3599C20.7857 11.0031 21.351 13.042 21.1507 15.0792C20.8885 17.1567 19.8688 19.0643 18.287 20.4365C16.7044 21.8094 14.6706 22.5497 12.5758 22.5152Z" fill="#3FB3DD" stroke="white" stroke-width="0.5"/>
</svg>
