<svg width="85" height="26" viewBox="0 0 85 26" fill="none" xmlns="http://www.w3.org/2000/svg">
<path d="M52.7346 20.2594C47.7951 23.9002 40.6356 25.8427 34.4714 25.8427C25.8282 25.8427 18.047 22.6459 12.1603 17.329C11.6978 16.9109 12.1122 16.3411 12.6672 16.6667C19.0201 20.363 26.8753 22.5867 34.9894 22.5867C40.4617 22.5867 46.4816 21.4545 52.0168 19.105C52.853 18.7498 53.5523 19.6526 52.7346 20.2594Z" fill="#FF9900"/>
<path d="M54.7883 17.9116C54.1593 17.105 50.6147 17.5305 49.0237 17.7192C48.539 17.7784 48.465 17.3566 48.9016 17.0532C51.7247 15.0663 56.3571 15.6398 56.8973 16.3058C57.4375 16.9755 56.7567 21.619 54.1038 23.8353C53.6968 24.1757 53.3083 23.9944 53.4896 23.543C54.0853 22.0556 55.421 18.7219 54.7883 17.9116Z" fill="#FF9900"/>
<path d="M49.1288 3.02528V1.09387C49.1288 0.801569 49.3508 0.605469 49.6172 0.605469H58.2641C58.5416 0.605469 58.7637 0.805269 58.7637 1.09387V2.74777C58.76 3.02528 58.5268 3.38788 58.1124 3.96138L53.6317 10.3587C55.2967 10.318 57.0542 10.5659 58.5639 11.4169C58.9043 11.6093 58.9968 11.8905 59.0227 12.168V14.2289C59.0227 14.5101 58.7118 14.8394 58.3862 14.6692C55.7259 13.2743 52.1924 13.1226 49.2509 14.684C48.9512 14.8468 48.6367 14.5212 48.6367 14.24V12.2827C48.6367 11.9682 48.6404 11.4317 48.9549 10.9544L54.146 3.50998H49.6283C49.3508 3.50998 49.1288 3.31388 49.1288 3.02528Z" fill="white"/>
<path d="M17.5889 15.078H14.9582C14.7066 15.0595 14.5068 14.8708 14.4883 14.6303V1.12898C14.4883 0.858879 14.714 0.644276 14.9952 0.644276H17.4483C17.7036 0.655369 17.9071 0.851477 17.9256 1.09568V2.86058H17.9737C18.6138 1.15488 19.8163 0.359375 21.4369 0.359375C23.0834 0.359375 24.112 1.15488 24.852 2.86058C25.4884 1.15488 26.9351 0.359375 28.4854 0.359375C29.588 0.359375 30.7942 0.814476 31.5305 1.83568C32.363 2.97158 32.1928 4.62179 32.1928 6.06849L32.1891 14.5896C32.1891 14.8597 31.9634 15.078 31.6822 15.078H29.0552C28.7925 15.0595 28.5816 14.8486 28.5816 14.5896V7.4338C28.5816 6.864 28.6334 5.44319 28.5076 4.90299C28.3115 3.99649 27.7232 3.74118 26.961 3.74118C26.3246 3.74118 25.6586 4.16669 25.3885 4.84749C25.1184 5.52829 25.1443 6.66789 25.1443 7.4338V14.5896C25.1443 14.8597 24.9186 15.078 24.6374 15.078H22.0104C21.744 15.0595 21.5368 14.8486 21.5368 14.5896L21.5331 7.4338C21.5331 5.92789 21.781 3.71159 19.9125 3.71159C18.0218 3.71159 18.0958 5.87239 18.0958 7.4338V14.5896C18.0958 14.8597 17.8701 15.078 17.5889 15.078Z" fill="white"/>
<path d="M66.213 0.359375C70.1165 0.359375 72.2292 3.71158 72.2292 7.974C72.2292 12.0921 69.8945 15.3592 66.213 15.3592C62.3798 15.3592 60.293 12.007 60.293 7.8297C60.293 3.62648 62.4057 0.359375 66.213 0.359375ZM66.2352 3.11588C64.2964 3.11588 64.1743 5.75769 64.1743 7.4042C64.1743 9.0544 64.1484 12.5768 66.213 12.5768C68.2517 12.5768 68.3479 9.73521 68.3479 8.0036C68.3479 6.864 68.2998 5.50239 67.9557 4.42199C67.6597 3.48219 67.0714 3.11588 66.2352 3.11588Z" fill="white"/>
<path d="M77.2883 15.078H74.6687C74.406 15.0595 74.1951 14.8486 74.1951 14.5896L74.1914 1.08458C74.2136 0.836676 74.4319 0.644276 74.6983 0.644276H77.1366C77.366 0.655369 77.5547 0.810777 77.6065 1.02168V3.08628H77.6546C78.3909 1.23998 79.4232 0.359375 81.2399 0.359375C82.4202 0.359375 83.5709 0.784877 84.3109 1.95038C84.9991 3.03078 84.9991 4.84749 84.9991 6.15359V14.6525C84.9695 14.8893 84.7512 15.078 84.4922 15.078H81.8541C81.6136 15.0595 81.4138 14.8819 81.3879 14.6525V7.3191C81.3879 5.84279 81.5581 3.68198 79.7414 3.68198C79.1013 3.68198 78.513 4.11119 78.2207 4.76239C77.8507 5.58749 77.8026 6.4089 77.8026 7.3191V14.5896C77.7989 14.8597 77.5695 15.078 77.2883 15.078Z" fill="white"/>
<path d="M7.75152 8.62754V8.05774C5.84972 8.05774 3.84061 8.46474 3.84061 10.7069C3.84061 11.8428 4.42891 12.6125 5.43901 12.6125C6.17902 12.6125 6.84132 12.1574 7.25942 11.4173C7.77742 10.5071 7.75152 9.65244 7.75152 8.62754ZM10.4044 15.0397C10.2305 15.1951 9.97893 15.2062 9.78283 15.1026C8.90963 14.3774 8.75422 14.0407 8.27322 13.3488C6.83022 14.8214 5.80902 15.2617 3.93681 15.2617C1.7242 15.2617 0 13.8964 0 11.1621C0 9.02714 1.1581 7.57304 2.80461 6.86264C4.23281 6.23363 6.22712 6.12263 7.75152 5.94873V5.60833C7.75152 4.98303 7.79962 4.24303 7.43332 3.70283C7.11142 3.21812 6.49722 3.01832 5.95702 3.01832C4.95432 3.01832 4.05891 3.53263 3.84061 4.59823C3.79621 4.83503 3.62231 5.06813 3.38551 5.07923L0.832503 4.80543C0.617901 4.75733 0.3811 4.58343 0.440301 4.25413C1.0286 1.16092 3.82211 0.228516 6.32332 0.228516C7.60352 0.228516 9.27593 0.568917 10.286 1.53832C11.5662 2.73342 11.4441 4.32813 11.4441 6.06343V10.163C11.4441 11.3952 11.9547 11.9354 12.4357 12.6014C12.6059 12.8382 12.6429 13.1231 12.4283 13.3007C11.8918 13.7484 10.9372 14.5809 10.4118 15.0471L10.4044 15.0397" fill="white"/>
<path d="M41.9937 8.62754V8.05774C40.0919 8.05774 38.0828 8.46474 38.0828 10.7069C38.0828 11.8428 38.6711 12.6125 39.6812 12.6125C40.4212 12.6125 41.0835 12.1574 41.5016 11.4173C42.0196 10.5071 41.9937 9.65244 41.9937 8.62754ZM44.6466 15.0397C44.4727 15.1951 44.2211 15.2062 44.025 15.1026C43.1518 14.3774 42.9964 14.0407 42.5154 13.3488C41.0724 14.8214 40.0512 15.2617 38.179 15.2617C35.9664 15.2617 34.2422 13.8964 34.2422 11.1621C34.2422 9.02714 35.4003 7.57304 37.0468 6.86264C38.475 6.23363 40.4693 6.12263 41.9937 5.94873V5.60833C41.9937 4.98303 42.0418 4.24303 41.6755 3.70283C41.3536 3.21812 40.7394 3.01832 40.1992 3.01832C39.1965 3.01832 38.3011 3.53263 38.0828 4.59823C38.0384 4.83503 37.8645 5.06813 37.6277 5.07923L35.0747 4.80543C34.8601 4.75733 34.6233 4.58343 34.6825 4.25413C35.2708 1.16092 38.0643 0.228516 40.5655 0.228516C41.8457 0.228516 43.5181 0.568917 44.5282 1.53832C45.8084 2.73342 45.6863 4.32813 45.6863 6.06343V10.163C45.6863 11.3952 46.1969 11.9354 46.6779 12.6014C46.8481 12.8382 46.8851 13.1231 46.6705 13.3007C46.134 13.7484 45.1794 14.5809 44.654 15.0471L44.6466 15.0397" fill="white"/>
</svg>
