<svg width="80" height="24" viewBox="0 0 80 24" fill="none" xmlns="http://www.w3.org/2000/svg">
<path d="M49.4098 18.769C44.7817 22.1802 38.0736 24.0003 32.2981 24.0003C24.1999 24.0003 16.9094 21.005 11.3938 16.0234C10.9605 15.6316 11.3488 15.0977 11.8688 15.4028C17.8211 18.8661 25.1809 20.9495 32.7834 20.9495C37.9107 20.9495 43.551 19.8887 48.7372 17.6874C49.5207 17.3546 50.1759 18.2004 49.4098 18.769Z" fill="white"/>
<path d="M51.3326 16.568C50.7432 15.8123 47.4221 16.2109 45.9314 16.3877C45.4773 16.4432 45.408 16.048 45.817 15.7637C48.4621 13.9021 52.8025 14.4394 53.3086 15.0635C53.8147 15.6909 53.1769 20.0417 50.6912 22.1182C50.3099 22.4371 49.9459 22.2673 50.1158 21.8443C50.6739 20.4507 51.9254 17.3272 51.3326 16.568Z" fill="white"/>
<path d="M46.0353 2.62074V0.811121C46.0353 0.537251 46.2433 0.353516 46.4929 0.353516H54.5946C54.8546 0.353516 55.0626 0.540718 55.0626 0.811121V2.36074C55.0591 2.62074 54.8407 2.96048 54.4525 3.49782L50.2543 9.49176C51.8143 9.45363 53.461 9.6859 54.8754 10.4832C55.1943 10.6635 55.281 10.927 55.3053 11.187V13.1179C55.3053 13.3814 55.0141 13.6899 54.709 13.5305C52.2164 12.2235 48.9057 12.0814 46.1497 13.5444C45.8689 13.6969 45.5742 13.3918 45.5742 13.1283V11.2945C45.5742 10.9998 45.5777 10.4971 45.8724 10.0499L50.7361 3.07488H46.5033C46.2433 3.07488 46.0353 2.89115 46.0353 2.62074Z" fill="white"/>
<path d="M16.4793 13.9117H14.0145C13.7788 13.8943 13.5916 13.7175 13.5742 13.4922V0.842172C13.5742 0.589102 13.7857 0.388031 14.0492 0.388031H16.3476C16.5868 0.398424 16.7775 0.582166 16.7948 0.810969V2.46459H16.8399C17.4396 0.866436 18.5663 0.121094 20.0847 0.121094C21.6274 0.121094 22.5911 0.866436 23.2845 2.46459C23.8807 0.866436 25.2362 0.121094 26.6888 0.121094C27.7219 0.121094 28.852 0.547499 29.5419 1.50431C30.3219 2.56859 30.1624 4.11474 30.1624 5.47023L30.159 13.4541C30.159 13.7071 29.9475 13.9117 29.684 13.9117H27.2227C26.9765 13.8943 26.7789 13.6967 26.7789 13.4541V6.74945C26.7789 6.21557 26.8275 4.88436 26.7096 4.37821C26.5259 3.52887 25.9746 3.28967 25.2605 3.28967C24.6642 3.28967 24.0402 3.68834 23.7871 4.32622C23.5341 4.96409 23.5583 6.03184 23.5583 6.74945V13.4541C23.5583 13.7071 23.3469 13.9117 23.0834 13.9117H20.622C20.3724 13.8943 20.1783 13.6967 20.1783 13.4541L20.1748 6.74945C20.1748 5.3385 20.4071 3.26193 18.6564 3.26193C16.8849 3.26193 16.9543 5.28649 16.9543 6.74945V13.4541C16.9543 13.7071 16.7428 13.9117 16.4793 13.9117Z" fill="white"/>
<path d="M62.0389 0.121094C65.6963 0.121094 67.6758 3.26193 67.6758 7.25558C67.6758 11.114 65.4883 14.1751 62.0389 14.1751C58.4474 14.1751 56.4922 11.0343 56.4922 7.12038C56.4922 3.1822 58.4717 0.121094 62.0389 0.121094ZM62.0597 2.70379C60.2432 2.70379 60.1288 5.17902 60.1288 6.72171C60.1288 8.26787 60.1045 11.5682 62.0389 11.5682C63.9491 11.5682 64.0392 8.90574 64.0392 7.28332C64.0392 6.21557 63.9942 4.93982 63.6717 3.92754C63.3944 3.047 62.8432 2.70379 62.0597 2.70379Z" fill="white"/>
<path d="M72.4173 13.9117H69.9628C69.7167 13.8943 69.5191 13.6967 69.5191 13.4541L69.5156 0.800569C69.5364 0.568299 69.741 0.388031 69.9906 0.388031H72.2751C72.4901 0.398424 72.6669 0.544033 72.7154 0.741636V2.67606H72.7605C73.4503 0.946171 74.4176 0.121094 76.1197 0.121094C77.2256 0.121094 78.3037 0.519766 78.9971 1.61178C79.6419 2.62406 79.6419 4.32622 79.6419 5.54996V13.513C79.6142 13.7349 79.4096 13.9117 79.1669 13.9117H76.6952C76.4698 13.8943 76.2826 13.7279 76.2584 13.513V6.64198C76.2584 5.25876 76.4178 3.2342 74.7157 3.2342C74.116 3.2342 73.5647 3.63634 73.2909 4.24648C72.9442 5.01956 72.8991 5.78917 72.8991 6.64198V13.4541C72.8957 13.7071 72.6807 13.9117 72.4173 13.9117Z" fill="white"/>
<path d="M7.26276 7.86943V7.33556C5.48087 7.33556 3.59845 7.7169 3.59845 9.81773C3.59845 10.882 4.14965 11.6031 5.09606 11.6031C5.78941 11.6031 6.40995 11.1767 6.80169 10.4833C7.28702 9.63052 7.26276 8.82971 7.26276 7.86943ZM9.74839 13.8772C9.58545 14.0228 9.34972 14.0332 9.16598 13.9362C8.34784 13.2567 8.20224 12.9412 7.75156 12.293C6.39955 13.6727 5.44274 14.0852 3.68858 14.0852C1.61548 14.0852 0 12.806 0 10.2441C0 8.24384 1.08508 6.88142 2.62777 6.21581C3.96592 5.62647 5.83447 5.52247 7.26276 5.35954V5.0406C7.26276 4.45472 7.30783 3.76138 6.96462 3.25524C6.66302 2.8011 6.08754 2.6139 5.5814 2.6139C4.64193 2.6139 3.80298 3.09577 3.59845 4.09419C3.55684 4.31606 3.39391 4.53446 3.17204 4.54486L0.78001 4.28832C0.57894 4.24326 0.357071 4.08032 0.412538 3.77178C0.963745 0.873613 3.58111 0 5.92461 0C7.12409 0 8.69104 0.318937 9.63745 1.22722C10.8369 2.34696 10.7225 3.84112 10.7225 5.467V9.30812C10.7225 10.4625 11.2009 10.9687 11.6516 11.5927C11.8111 11.8146 11.8457 12.0815 11.6447 12.2479C11.142 12.6674 10.2476 13.4474 9.75532 13.8842L9.74839 13.8772" fill="white"/>
<path d="M39.3448 7.86943V7.33556C37.5629 7.33556 35.6805 7.7169 35.6805 9.81773C35.6805 10.882 36.2317 11.6031 37.1781 11.6031C37.8714 11.6031 38.492 11.1767 38.8837 10.4833C39.3691 9.63052 39.3448 8.82971 39.3448 7.86943ZM41.8304 13.8772C41.6675 14.0228 41.4317 14.0332 41.248 13.9362C40.4299 13.2567 40.2843 12.9412 39.8336 12.293C38.4816 13.6727 37.5248 14.0852 35.7706 14.0852C33.6975 14.0852 32.082 12.806 32.082 10.2441C32.082 8.24384 33.1671 6.88142 34.7098 6.21581C36.0479 5.62647 37.9165 5.52247 39.3448 5.35954V5.0406C39.3448 4.45472 39.3899 3.76138 39.0467 3.25524C38.745 2.8011 38.1696 2.6139 37.6634 2.6139C36.724 2.6139 35.885 3.09577 35.6805 4.09419C35.6389 4.31606 35.4759 4.53446 35.2541 4.54486L32.862 4.28832C32.661 4.24326 32.4391 4.08032 32.4946 3.77178C33.0458 0.873613 35.6631 0 38.0066 0C39.2061 0 40.7731 0.318937 41.7195 1.22722C42.919 2.34696 42.8046 3.84112 42.8046 5.467V9.30812C42.8046 10.4625 43.283 10.9687 43.7336 11.5927C43.8931 11.8146 43.9278 12.0815 43.7267 12.2479C43.224 12.6674 42.3296 13.4474 41.8374 13.8842L41.8304 13.8772" fill="white"/>
</svg>
