<svg width="46" height="33" viewBox="0 0 46 33" fill="none" xmlns="http://www.w3.org/2000/svg">
<path d="M44.586 15.9089H40.7927C42.3697 12.3287 42.1992 9.43045 41.6025 7.46987C40.5796 3.97493 37.1273 0.181641 32.0127 0.181641C30.6488 0.181641 29.285 0.437368 27.8785 0.948823C25.4491 1.84387 23.8294 2.82416 23.1049 3.33561C22.3803 2.82416 20.8033 1.84387 18.3313 0.948823C16.9248 0.437368 15.5183 0.181641 14.197 0.181641C9.0825 0.181641 5.63018 3.97493 4.60726 7.46987C4.01057 9.55832 3.79746 12.7123 5.80066 16.6761H1.19757C0.813974 16.6761 0.515625 16.9744 0.515625 17.358C0.515625 17.7416 0.813974 18.0399 1.19757 18.0399H6.61046C6.82357 18.4235 7.0793 18.8071 7.37765 19.1907C11.8103 25.5839 21.4427 32.5312 23.1901 32.9574V33C23.1901 33 23.2328 33 23.2754 32.9574C23.318 32.9574 23.3606 32.9574 23.4032 32.9574V32.9148C24.895 32.1902 34.1438 26.2232 39.0026 19.1481C39.4714 18.5088 39.855 17.8695 40.196 17.2301H44.6712C45.0548 17.2301 45.3532 16.9318 45.3532 16.5482C45.3532 16.1646 44.9696 15.9089 44.586 15.9089ZM37.7666 18.4235C33.2487 25.0298 24.9376 30.3575 23.1475 31.5083C21.3148 30.3575 13.0463 24.9872 8.4858 18.4235C8.40056 18.2957 8.31531 18.1678 8.23007 18.0399H14.4954C14.7511 18.0399 15.0068 17.9121 15.1347 17.6564L17.9903 12.0303L22.4656 23.4955C22.5508 23.7512 22.8492 23.9217 23.1049 23.9217C23.1049 23.9217 23.1049 23.9217 23.1475 23.9217C23.4459 23.9217 23.7016 23.7086 23.7868 23.4102L27.708 9.98453L29.7964 16.7613C29.8817 17.017 30.0948 17.1875 30.3505 17.2301C30.6062 17.2728 30.862 17.1449 31.0324 16.9318L32.6947 14.5024L34.1012 16.8892C34.229 17.1023 34.4421 17.2301 34.6979 17.2301H38.5338C38.278 17.6564 38.0223 18.0399 37.7666 18.4235ZM39.301 15.9089H35.1241L33.3766 12.9254C33.2487 12.7123 33.0356 12.5844 32.7799 12.5844C32.5242 12.5844 32.3111 12.6697 32.1832 12.8828L30.7341 15.0138L28.3899 7.38463C28.3047 7.08628 28.0063 6.9158 27.708 6.87318C27.4096 6.87318 27.1113 7.08628 27.026 7.38463L23.0623 21.0661L18.7575 10.0698C18.6723 9.81404 18.4165 9.64356 18.1608 9.64356C17.8625 9.64356 17.6494 9.77142 17.5215 10.0271L14.1544 16.6334H7.37765C5.6728 13.5221 5.20396 10.5386 5.97115 7.85346C6.86619 4.82736 9.80706 1.58814 14.2397 1.58814C15.4331 1.58814 16.6691 1.84387 17.9051 2.27008C21.0164 3.42086 22.6787 4.74211 22.7213 4.74211C22.977 4.95522 23.318 4.95522 23.5737 4.74211C23.5737 4.74211 25.236 3.42086 28.3899 2.27008C29.6259 1.80125 30.862 1.58814 32.0553 1.58814C36.4453 1.58814 39.4288 4.82736 40.3239 7.85346C41.0484 10.3255 40.6648 13.0533 39.301 15.9089Z" fill="white"/>
</svg>
