<svg width="65" height="66" viewBox="0 0 65 66" fill="none" xmlns="http://www.w3.org/2000/svg">
<path d="M60.6969 0.998047H23.5763C21.2037 0.998047 19.2734 2.92828 19.2734 5.30089V55.8593C19.2734 57.8984 20.6997 59.6095 22.6067 60.0505L22.9175 62.691C23.1089 64.3156 24.4867 65.5407 26.1225 65.5407H28.3432C29.5423 65.5407 30.6356 64.8821 31.1963 63.822C31.4741 63.2969 31.2737 62.646 30.7484 62.3681C30.2235 62.0903 29.5724 62.2908 29.2946 62.8162C29.1074 63.1697 28.7429 63.3894 28.3432 63.3894H26.1225C25.5771 63.3894 25.1179 62.981 25.0542 62.4395L24.7861 60.1621H59.4871L59.219 62.4393C59.1551 62.9809 58.6959 63.3893 58.1507 63.3893H55.93C55.5631 63.3893 55.225 63.2049 55.0255 62.8962C54.703 62.3973 54.0372 62.2541 53.5381 62.5766C53.0391 62.8989 52.896 63.5649 53.2183 64.0639C53.8157 64.9886 54.8294 65.5407 55.9299 65.5407H58.1506C59.7863 65.5407 61.1642 64.3156 61.3556 62.691L61.6665 60.0507C63.5735 59.6095 64.9998 57.8984 64.9998 55.8593V5.30089C64.9998 2.92828 63.0695 0.998047 60.6969 0.998047V0.998047ZM62.8483 55.8593C62.8483 57.0455 61.8831 58.0107 60.6969 58.0107H23.5763C22.39 58.0107 21.4249 57.0455 21.4249 55.8593V17.6499H58.9923C59.5864 17.6499 60.068 17.1683 60.068 16.5742C60.068 15.9801 59.5864 15.4985 58.9923 15.4985H21.4249V5.30089C21.4249 4.11465 22.39 3.14947 23.5763 3.14947H60.6969C61.8831 3.14947 62.8483 4.11465 62.8483 5.30089V55.8593Z" fill="#303E48"/>
<path d="M31.5521 5.46484C29.3565 5.46484 27.5703 7.25106 27.5703 9.44672C27.5703 11.6424 29.3565 13.4286 31.5521 13.4286C33.7477 13.4286 35.5339 11.6422 35.5339 9.44672C35.5339 7.2512 33.7477 5.46484 31.5521 5.46484ZM31.5521 11.2772C30.5428 11.2772 29.7217 10.456 29.7217 9.44672C29.7217 8.43744 30.5428 7.61627 31.5521 7.61627C32.5615 7.61627 33.3825 8.4373 33.3825 9.44672C33.3825 10.4561 32.5615 11.2772 31.5521 11.2772Z" fill="#3FB3DD"/>
<path d="M45.1965 8.37109H39.0718C38.4777 8.37109 37.9961 8.85274 37.9961 9.4468C37.9961 10.0409 38.4777 10.5225 39.0718 10.5225H45.1965C45.7906 10.5225 46.2722 10.0409 46.2722 9.4468C46.2722 8.85274 45.7906 8.37109 45.1965 8.37109Z" fill="#3FB3DD"/>
<path d="M42.1336 23.9805C41.5396 23.9805 41.0586 24.4621 41.0586 25.0562C41.0586 25.6502 41.5408 26.1319 42.135 26.1319C42.7292 26.1319 43.2107 25.6502 43.2107 25.0562C43.2108 24.4652 42.7329 23.9805 42.1336 23.9805Z" fill="#3FB3DD"/>
<path d="M29.4716 23.9805C28.8723 23.9805 28.3945 24.4652 28.3945 25.0562C28.3945 25.6502 28.8762 26.1319 29.4702 26.1319C30.0643 26.1319 30.5466 25.6502 30.5466 25.0562C30.5466 24.4621 30.0656 23.9805 29.4716 23.9805Z" fill="#3FB3DD"/>
<path d="M35.8016 23.9805C35.2075 23.9805 34.7266 24.4621 34.7266 25.0562C34.7266 25.6502 35.2087 26.1319 35.8029 26.1319C36.3971 26.1319 36.8787 25.6502 36.8787 25.0562C36.8787 24.4652 36.4008 23.9805 35.8016 23.9805Z" fill="#3FB3DD"/>
<path d="M54.8016 23.9805C54.2075 23.9805 53.7266 24.4621 53.7266 25.0562C53.7266 25.6502 54.2088 26.1319 54.8029 26.1319C55.3971 26.1319 55.8787 25.6502 55.8787 25.0562C55.8787 24.4652 55.4008 23.9805 54.8016 23.9805Z" fill="#3FB3DD"/>
<path d="M48.4638 23.9805C47.8645 23.9805 47.3867 24.4652 47.3867 25.0562C47.3867 25.6502 47.8684 26.1319 48.4624 26.1319C49.0565 26.1319 49.5388 25.6502 49.5388 25.0562C49.5388 24.4621 49.0578 23.9805 48.4638 23.9805Z" fill="#3FB3DD"/>
<path d="M42.1336 32.0469C41.5396 32.0469 41.0586 32.5285 41.0586 33.1226C41.0586 33.7166 41.5408 34.1983 42.135 34.1983C42.7292 34.1983 43.2107 33.7166 43.2107 33.1226C43.2108 32.5316 42.7329 32.0469 42.1336 32.0469Z" fill="#3FB3DD"/>
<path d="M29.4716 32.0469C28.8723 32.0469 28.3945 32.5316 28.3945 33.1226C28.3945 33.7166 28.8762 34.1983 29.4702 34.1983C30.0643 34.1983 30.5466 33.7166 30.5466 33.1226C30.5466 32.5285 30.0656 32.0469 29.4716 32.0469Z" fill="#3FB3DD"/>
<path d="M35.8016 32.0469C35.2075 32.0469 34.7266 32.5285 34.7266 33.1226C34.7266 33.7166 35.2087 34.1983 35.8029 34.1983C36.3971 34.1983 36.8787 33.7166 36.8787 33.1226C36.8787 32.5316 36.4008 32.0469 35.8016 32.0469Z" fill="#3FB3DD"/>
<path d="M54.8016 32.0469C54.2075 32.0469 53.7266 32.5285 53.7266 33.1226C53.7266 33.7166 54.2088 34.1983 54.8029 34.1983C55.3971 34.1983 55.8787 33.7166 55.8787 33.1226C55.8787 32.5316 55.4008 32.0469 54.8016 32.0469Z" fill="#3FB3DD"/>
<path d="M48.4638 32.0469C47.8645 32.0469 47.3867 32.5316 47.3867 33.1226C47.3867 33.7166 47.8684 34.1983 48.4624 34.1983C49.0565 34.1983 49.5388 33.7166 49.5388 33.1226C49.5388 32.5285 49.0578 32.0469 48.4638 32.0469Z" fill="#3FB3DD"/>
<path d="M42.1336 41.4609C41.5396 41.4609 41.0586 41.9426 41.0586 42.5366C41.0586 43.1307 41.5408 43.6124 42.135 43.6124C42.7292 43.6124 43.2107 43.1307 43.2107 42.5366C43.2108 41.9457 42.7329 41.4609 42.1336 41.4609Z" fill="#3FB3DD"/>
<path d="M29.4716 41.4609C28.8723 41.4609 28.3945 41.9457 28.3945 42.5366C28.3945 43.1307 28.8762 43.6124 29.4702 43.6124C30.0643 43.6124 30.5466 43.1307 30.5466 42.5366C30.5466 41.9426 30.0656 41.4609 29.4716 41.4609Z" fill="#3FB3DD"/>
<path d="M35.8016 41.4609C35.2075 41.4609 34.7266 41.9426 34.7266 42.5366C34.7266 43.1307 35.2087 43.6124 35.8029 43.6124C36.3971 43.6124 36.8787 43.1307 36.8787 42.5366C36.8787 41.9457 36.4008 41.4609 35.8016 41.4609Z" fill="#3FB3DD"/>
<path d="M54.8016 41.4609C54.2075 41.4609 53.7266 41.9426 53.7266 42.5366C53.7266 43.1307 54.2088 43.6124 54.8029 43.6124C55.3971 43.6124 55.8787 43.1307 55.8787 42.5366C55.8787 41.9457 55.4008 41.4609 54.8016 41.4609Z" fill="#3FB3DD"/>
<path d="M48.4638 41.4609C47.8645 41.4609 47.3867 41.9457 47.3867 42.5366C47.3867 43.1307 47.8684 43.6124 48.4624 43.6124C49.0565 43.6124 49.5388 43.1307 49.5388 42.5366C49.5388 41.9426 49.0578 41.4609 48.4638 41.4609Z" fill="#3FB3DD"/>
<path d="M42.1336 49.5293C41.5396 49.5293 41.0586 50.0109 41.0586 50.605C41.0586 51.1991 41.5408 51.6807 42.135 51.6807C42.7292 51.6807 43.2107 51.1991 43.2107 50.605C43.2108 50.014 42.7329 49.5293 42.1336 49.5293Z" fill="#3FB3DD"/>
<path d="M29.4716 49.5293C28.8723 49.5293 28.3945 50.014 28.3945 50.605C28.3945 51.1991 28.8762 51.6807 29.4702 51.6807C30.0643 51.6807 30.5466 51.1991 30.5466 50.605C30.5466 50.0109 30.0656 49.5293 29.4716 49.5293Z" fill="#3FB3DD"/>
<path d="M35.8016 49.5293C35.2075 49.5293 34.7266 50.0109 34.7266 50.605C34.7266 51.1991 35.2087 51.6807 35.8029 51.6807C36.3971 51.6807 36.8787 51.1991 36.8787 50.605C36.8787 50.014 36.4008 49.5293 35.8016 49.5293Z" fill="#3FB3DD"/>
<path d="M54.8016 49.5293C54.2075 49.5293 53.7266 50.0109 53.7266 50.605C53.7266 51.1991 54.2088 51.6807 54.8029 51.6807C55.3971 51.6807 55.8787 51.1991 55.8787 50.605C55.8787 50.014 55.4008 49.5293 54.8016 49.5293Z" fill="#3FB3DD"/>
<path d="M48.4638 49.5293C47.8645 49.5293 47.3867 50.014 47.3867 50.605C47.3867 51.1991 47.8684 51.6807 48.4624 51.6807C49.0565 51.6807 49.5388 51.1991 49.5388 50.605C49.5388 50.0109 49.0578 49.5293 48.4638 49.5293Z" fill="#3FB3DD"/>
<path d="M2.15991 24.0413C5.25836 21.8178 8.22262 25.0143 12.9334 24.8203C13.5271 24.7959 13.9886 24.2951 13.9642 23.7015C13.9399 23.108 13.4374 22.6441 12.8455 22.6707C8.61727 22.8398 5.07307 19.3026 0.905634 22.2934C0.422909 22.6398 0.312514 23.3119 0.658893 23.7946C1.00527 24.2772 1.67732 24.3877 2.15991 24.0413Z" fill="#3FB3DD"/>
<path d="M15.2674 34.6072C11.0436 36.2219 8.00943 33.501 4.46483 33.5395C3.87077 33.5467 3.39503 34.0343 3.40243 34.6284C3.40969 35.2224 3.89174 35.7 4.49118 35.6908C7.46902 35.6528 11.0096 38.5382 16.0356 36.6169C16.5905 36.4048 16.8683 35.783 16.6563 35.2281C16.4441 34.673 15.8225 34.3948 15.2674 34.6072Z" fill="#3FB3DD"/>
<path d="M15.2674 47.0503C9.67806 49.187 5.84073 43.6397 0.905634 47.1811C0.422909 47.5275 0.312514 48.1995 0.658893 48.6822C1.00527 49.165 1.67732 49.2754 2.15991 48.929C5.88994 46.2522 9.65842 51.4977 16.0355 49.0598C16.5904 48.8476 16.8682 48.2259 16.6562 47.6709C16.4441 47.1161 15.8225 46.8381 15.2674 47.0503Z" fill="#3FB3DD"/>
</svg>
