<svg width="46" height="36" viewBox="0 0 46 36" fill="none" xmlns="http://www.w3.org/2000/svg">
<path d="M37.5251 1.54688C33.4017 1.54688 30.0471 4.90158 30.0471 9.02493C30.0471 9.43847 30.3821 9.77271 30.7949 9.77271C31.2076 9.77271 31.5426 9.43847 31.5426 9.02493C31.5426 5.72631 34.2265 3.04243 37.5251 3.04243C40.8238 3.04243 43.5076 5.72631 43.5076 9.02493C43.5076 12.3236 40.8238 15.0074 37.5251 15.0074H6.86497C6.45221 15.0074 6.11719 15.3417 6.11719 15.7552C6.11719 16.1687 6.45221 16.503 6.86497 16.503H37.5251C41.6486 16.503 45.0032 13.1483 45.0032 9.02493C45.0032 4.90158 41.6485 1.54688 37.5251 1.54688Z" fill="white"/>
<path d="M37.5183 19.4961H9.84934C9.43659 19.4961 9.10156 19.8303 9.10156 20.2439C9.10156 20.6574 9.43659 20.9917 9.84934 20.9917H37.5182C40.8168 20.9917 43.5007 23.6755 43.5007 26.9741C43.5007 30.2728 40.8168 32.9566 37.5182 32.9566C34.2196 32.9566 31.5358 30.2728 31.5358 26.9741C31.5358 26.5606 31.2008 26.2264 30.788 26.2264C30.3753 26.2264 30.0403 26.5606 30.0403 26.9741C30.0403 31.0976 33.395 34.4522 37.5183 34.4522C41.6417 34.4522 44.9964 31.0976 44.9964 26.9741C44.9964 22.8507 41.6417 19.4961 37.5183 19.4961Z" fill="white"/>
<path d="M5.36744 19.4961H0.880592C0.467836 19.4961 0.132812 19.8303 0.132812 20.2439C0.132812 20.6574 0.467836 20.9917 0.880592 20.9917H5.36744C5.7802 20.9917 6.11522 20.6574 6.11522 20.2439C6.11522 19.8303 5.78028 19.4961 5.36744 19.4961Z" fill="white"/>
<path d="M4.61966 9.77539H0.880592C0.467836 9.77539 0.132812 10.1096 0.132812 10.5232C0.132812 10.9367 0.467836 11.2709 0.880592 11.2709H4.61966C5.03242 11.2709 5.36744 10.9367 5.36744 10.5232C5.36744 10.1096 5.03242 9.77539 4.61966 9.77539Z" fill="white"/>
<path d="M21.815 24.7324H6.11106C5.6983 24.7324 5.36328 25.0667 5.36328 25.4802C5.36328 25.8937 5.6983 26.228 6.11106 26.228H21.815C23.8767 26.228 25.5541 27.9053 25.5541 29.9671C25.5541 32.0287 23.8768 33.7061 21.815 33.7061C19.7534 33.7061 18.076 32.0288 18.076 29.9671C18.076 29.5535 17.7409 29.2193 17.3282 29.2193C16.9154 29.2193 16.5804 29.5535 16.5804 29.9671C16.5804 32.8528 18.9286 35.2017 21.815 35.2017C24.7015 35.2017 27.0497 32.8528 27.0497 29.9671C27.0497 27.0813 24.7015 24.7324 21.815 24.7324Z" fill="white"/>
<path d="M21.8121 0.800781C18.9255 0.800781 16.5775 3.14963 16.5775 6.03541C16.5775 6.44895 16.9125 6.78319 17.3253 6.78319C17.738 6.78319 18.073 6.44895 18.073 6.03541C18.073 3.97374 19.7504 2.29634 21.8121 2.29634C23.8738 2.29634 25.5512 3.97365 25.5512 6.03541C25.5512 8.09708 23.8739 9.77448 21.8121 9.77448H9.09934C8.68659 9.77448 8.35156 10.1087 8.35156 10.5223C8.35156 10.9358 8.68659 11.27 9.09934 11.27H21.8121C24.6987 11.27 27.0467 8.92119 27.0467 6.03541C27.0467 3.14963 24.6986 0.800781 21.8121 0.800781Z" fill="white"/>
</svg>
