<svg width="43" height="44" viewBox="0 0 43 44" fill="none" xmlns="http://www.w3.org/2000/svg">
<path d="M21.4981 6.56772C22.1938 6.56772 22.7579 6.00367 22.7579 5.30792V1.25979C22.7579 0.564051 22.1938 0 21.4981 0C20.8023 0 20.2383 0.564051 20.2383 1.25979V5.30792C20.2383 6.00367 20.8023 6.56772 21.4981 6.56772Z" fill="white"/>
<path d="M21.4981 36.4336C20.8023 36.4336 20.2383 36.9976 20.2383 37.6934V41.7415C20.2383 42.4373 20.8023 43.0013 21.4981 43.0013C22.1938 43.0013 22.7579 42.4373 22.7579 41.7415V37.6934C22.7579 36.9976 22.1938 36.4336 21.4981 36.4336Z" fill="white"/>
<path d="M41.7415 20.2402H37.6934C36.9976 20.2402 36.4336 20.8043 36.4336 21.5C36.4336 22.1958 36.9976 22.7598 37.6934 22.7598H41.7415C42.4373 22.7598 43.0013 22.1958 43.0013 21.5C43.0013 20.8043 42.4373 20.2402 41.7415 20.2402Z" fill="white"/>
<path d="M6.56772 21.5C6.56772 20.8043 6.00367 20.2402 5.30792 20.2402H1.25979C0.564051 20.2402 0 20.8043 0 21.5C0 22.1958 0.564051 22.7598 1.25979 22.7598H5.30792C6.00367 22.7598 6.56772 22.1958 6.56772 21.5Z" fill="white"/>
<path d="M33.842 10.9403L36.704 8.07833C37.196 7.58633 37.196 6.78872 36.704 6.29673C36.2121 5.80474 35.4144 5.80474 34.9224 6.29673L32.0604 9.15872C31.5684 9.65071 31.5684 10.4483 32.0604 10.9403C32.5522 11.4322 33.35 11.4325 33.842 10.9403Z" fill="white"/>
<path d="M9.15677 32.0585L6.29477 34.9205C5.80278 35.4125 5.80278 36.2101 6.29477 36.7021C6.7866 37.194 7.58438 37.1942 8.07637 36.7021L10.9384 33.8401C11.4304 33.3481 11.4304 32.5505 10.9384 32.0585C10.4464 31.5664 9.64868 31.5664 9.15677 32.0585Z" fill="white"/>
<path d="M33.842 32.0584C33.3501 31.5665 32.5524 31.5665 32.0604 32.0584C31.5684 32.5504 31.5684 33.3481 32.0604 33.84L34.9224 36.702C35.4142 37.1939 36.212 37.1941 36.704 36.702C37.196 36.2101 37.196 35.4124 36.704 34.9204L33.842 32.0584Z" fill="white"/>
<path d="M9.15685 10.9403C9.64868 11.4322 10.4465 11.4324 10.9385 10.9403C11.4304 10.4483 11.4304 9.65071 10.9385 9.15872L8.07637 6.29673C7.58447 5.80474 6.78677 5.80474 6.29477 6.29673C5.80278 6.78872 5.80278 7.58633 6.29477 8.07833L9.15685 10.9403Z" fill="white"/>
<path d="M21.5023 10.7949C15.5994 10.7949 10.7969 15.5974 10.7969 21.5004C10.7969 27.4033 15.5994 32.2058 21.5023 32.2058C27.4053 32.2058 32.2078 27.4033 32.2078 21.5004C32.2078 15.5974 27.4053 10.7949 21.5023 10.7949ZM21.5023 29.6863C16.9887 29.6863 13.3165 26.0141 13.3165 21.5004C13.3165 16.9867 16.9887 13.3145 21.5023 13.3145C26.016 13.3145 29.6882 16.9867 29.6882 21.5004C29.6882 26.0141 26.016 29.6863 21.5023 29.6863Z" fill="white"/>
</svg>
