<svg width="32" height="40" viewBox="0 0 32 40" fill="none" xmlns="http://www.w3.org/2000/svg">
<path d="M31.6109 0.570501C31.4071 0.430937 31.1569 0.376226 30.9134 0.417962C30.67 0.459699 30.4523 0.594604 30.3066 0.794083L25.8723 7.14751C25.6526 6.8225 25.3588 6.5543 25.0152 6.36498C24.5875 6.11805 24.1024 5.98806 23.6085 5.98806C23.1147 5.98806 22.6295 6.11805 22.2018 6.36498L8.74969 13.4451H5.02333C4.40851 13.4401 3.7988 13.557 3.22937 13.7889C2.65993 14.0207 2.14204 14.3631 1.70555 14.7961C1.26907 15.2291 0.922631 15.7443 0.686221 16.3118C0.449811 16.8794 0.328105 17.4882 0.328125 18.103V21.8293C0.328125 23.0647 0.818871 24.2495 1.6924 25.123C2.56594 25.9965 3.7507 26.4873 4.98607 26.4873H8.71242L11.3395 27.8474L4.22216 38.0576C4.0826 38.2614 4.02789 38.5116 4.06963 38.755C4.11136 38.9985 4.24627 39.2161 4.44575 39.3618C4.60516 39.4702 4.79329 39.5286 4.98607 39.5295C5.13571 39.5319 5.28365 39.4975 5.41686 39.4293C5.55007 39.361 5.66446 39.2611 5.74997 39.1383L13.035 28.7231L22.1459 33.5301C22.5926 33.7923 23.0999 33.9336 23.6178 33.94C24.1076 33.9355 24.5883 33.8073 25.0152 33.5674C25.4398 33.3356 25.7939 32.9933 26.0399 32.5767C26.2858 32.1602 26.4146 31.6849 26.4126 31.2011V16.2957C26.4126 16.0486 26.3145 15.8117 26.1397 15.637C25.965 15.4623 25.7281 15.3641 25.481 15.3641C25.2339 15.3641 24.997 15.4623 24.8223 15.637C24.6476 15.8117 24.5494 16.0486 24.5494 16.2957V31.2011C24.5481 31.3539 24.5059 31.5036 24.4273 31.6346C24.3487 31.7657 24.2365 31.8733 24.1023 31.9464C23.945 32.0418 23.7645 32.0922 23.5806 32.0922C23.3966 32.0922 23.2162 32.0418 23.0589 31.9464L14.1156 27.2326L31.8344 1.87473C31.974 1.67091 32.0287 1.42076 31.987 1.1773C31.9452 0.933835 31.8103 0.716191 31.6109 0.570501ZM2.1913 21.8293V18.103C2.1913 17.3618 2.48575 16.6509 3.00987 16.1268C3.53399 15.6027 4.24485 15.3082 4.98607 15.3082H7.78083V24.6241H4.98607C4.24485 24.6241 3.53399 24.3297 3.00987 23.8055C2.48575 23.2814 2.1913 22.5706 2.1913 21.8293ZM9.64401 24.8477V15.0846L23.1148 8.00458C23.2649 7.91791 23.4352 7.87228 23.6085 7.87228C23.7819 7.87228 23.9521 7.91791 24.1023 8.00458C24.2407 8.08223 24.3555 8.19606 24.4342 8.3339C24.513 8.47174 24.5528 8.62839 24.5494 8.78711C24.539 8.84878 24.539 8.91176 24.5494 8.97343L12.4388 26.3196L9.64401 24.8477Z" fill="white"/>
</svg>
