<svg width="67" height="67" viewBox="0 0 67 67" fill="none" xmlns="http://www.w3.org/2000/svg">
<path d="M46.9752 4.13653C43.4762 2.03712 38.8472 0.880859 33.9408 0.880859C29.0343 0.880859 24.4053 2.03712 20.9064 4.13653C17.2311 6.3416 15.207 9.33377 15.207 12.5619V55.3189C15.207 58.5473 17.2311 61.5394 20.9064 63.7445C24.4053 65.8438 29.0343 66.9999 33.9408 66.9999C38.8472 66.9999 43.4762 65.8438 46.9752 63.7445C50.6504 61.5394 52.6745 58.5473 52.6745 55.3189V12.5619C52.6745 9.33377 50.6504 6.3416 46.9752 4.13653ZM45.8412 61.8546C42.6799 63.7514 38.4535 64.7959 33.9408 64.7959C29.428 64.7959 25.2016 63.7514 22.0403 61.8546C19.0725 60.0741 17.431 57.7695 17.412 55.3613C18.4157 56.4996 19.5955 57.4695 20.9064 58.2343C24.4053 60.3337 29.0343 61.49 33.9408 61.49C38.8472 61.49 43.4762 60.3337 46.9752 58.2343C48.286 57.4695 49.4658 56.4996 50.4696 55.3613C50.4505 57.7695 48.809 60.0741 45.8412 61.8546ZM50.4705 49.809C50.4705 52.2324 48.8265 54.5534 45.8414 56.3445C42.6799 58.2413 38.4535 59.286 33.9408 59.286C29.428 59.286 25.2016 58.2413 22.0402 56.3445C19.055 54.5534 17.411 52.2324 17.411 49.809V27.8106C18.415 28.9494 19.5951 29.9197 20.9064 30.6847C24.4053 32.7841 29.0343 33.9404 33.9408 33.9404C38.8472 33.9404 43.4762 32.7841 46.9752 30.6847C48.2865 29.9197 49.4666 28.9494 50.4705 27.8106V49.809ZM50.4705 22.2593C50.4705 24.6827 48.8265 27.0038 45.8414 28.7949C42.6799 30.6917 38.4535 31.7364 33.9408 31.7364C29.428 31.7364 25.2016 30.6917 22.0402 28.7949C19.055 27.0038 17.411 24.6827 17.411 22.2593V18.1131C18.415 19.2518 19.5951 20.2222 20.9064 20.9872C24.4052 23.0865 29.0343 24.2428 33.9408 24.2428C38.8472 24.2428 43.4764 23.0865 46.9752 20.9872C48.2864 20.2222 49.4665 19.2518 50.4705 18.1131V22.2593ZM45.8414 19.0975C42.6799 20.9943 38.4535 22.039 33.9408 22.039C29.428 22.039 25.2016 20.9943 22.0402 19.0975C19.055 17.3063 17.411 14.9854 17.411 12.5619C17.411 10.1384 19.055 7.81744 22.0402 6.0263C25.2016 4.12951 29.428 3.08483 33.9408 3.08483C38.4535 3.08483 42.6799 4.12951 45.8414 6.0263C48.8265 7.81744 50.4705 10.1385 50.4705 12.5619C50.4705 14.9853 48.8265 17.3063 45.8414 19.0975Z" fill="#303E48"/>
<path d="M33.937 7.60352C28.9111 7.60352 25.1211 9.7353 25.1211 12.5624C25.1211 15.3896 28.9111 17.5214 33.937 17.5214C38.9628 17.5214 42.7528 15.3894 42.7528 12.5624C42.7528 9.73544 38.9628 7.60352 33.937 7.60352ZM33.937 15.3174C29.8405 15.3174 27.3251 13.7128 27.3251 12.5624C27.3251 11.4121 29.8405 9.80748 33.937 9.80748C38.0335 9.80748 40.5489 11.412 40.5489 12.5624C40.5489 13.7129 38.0335 15.3174 33.937 15.3174Z" fill="#3FB3DD"/>
<path d="M32.8359 37.2461H35.0399V39.4501H32.8359V37.2461Z" fill="#303E48"/>
<path d="M32.8359 41.6543H35.0399V43.8583H32.8359V41.6543Z" fill="#303E48"/>
<path d="M32.8359 46.0625H35.0399V48.2665H32.8359V46.0625Z" fill="#303E48"/>
<path d="M32.8359 50.4707H35.0399V52.6747H32.8359V50.4707Z" fill="#303E48"/>
<path d="M32.8359 54.877H35.0399V57.0809H32.8359V54.877Z" fill="#303E48"/>
<path d="M37.2461 37.2461H39.4501V39.4501H37.2461V37.2461Z" fill="#303E48"/>
<path d="M37.2461 41.6543H39.4501V43.8583H37.2461V41.6543Z" fill="#303E48"/>
<path d="M37.2461 46.0625H39.4501V48.2665H37.2461V46.0625Z" fill="#303E48"/>
<path d="M37.2461 50.4707H39.4501V52.6747H37.2461V50.4707Z" fill="#303E48"/>
<path d="M37.2461 54.877H39.4501V57.0809H37.2461V54.877Z" fill="#303E48"/>
<path d="M41.6523 37.2461H43.8563V39.4501H41.6523V37.2461Z" fill="#303E48"/>
<path d="M41.6523 41.6543H43.8563V43.8583H41.6523V41.6543Z" fill="#303E48"/>
<path d="M41.6523 46.0625H43.8563V48.2665H41.6523V46.0625Z" fill="#303E48"/>
<path d="M41.6523 50.4707H43.8563V52.6747H41.6523V50.4707Z" fill="#303E48"/>
<path d="M46.0586 37.2461H48.2626V39.4501H46.0586V37.2461Z" fill="#303E48"/>
<path d="M46.0586 32.8379H48.2626V35.0419H46.0586V32.8379Z" fill="#303E48"/>
<path d="M46.0586 41.6543H48.2626V43.8583H46.0586V41.6543Z" fill="#303E48"/>
<path d="M46.0586 46.0625H48.2626V48.2665H46.0586V46.0625Z" fill="#303E48"/>
<path d="M28.4258 37.2461H30.6297V39.4501H28.4258V37.2461Z" fill="#303E48"/>
<path d="M28.4258 41.6543H30.6297V43.8583H28.4258V41.6543Z" fill="#303E48"/>
<path d="M28.4258 46.0625H30.6297V48.2665H28.4258V46.0625Z" fill="#303E48"/>
<path d="M28.4258 50.4707H30.6297V52.6747H28.4258V50.4707Z" fill="#303E48"/>
<path d="M28.4258 54.877H30.6297V57.0809H28.4258V54.877Z" fill="#303E48"/>
<path d="M24.0195 37.2461H26.2235V39.4501H24.0195V37.2461Z" fill="#303E48"/>
<path d="M24.0195 41.6543H26.2235V43.8583H24.0195V41.6543Z" fill="#303E48"/>
<path d="M24.0195 46.0625H26.2235V48.2665H24.0195V46.0625Z" fill="#303E48"/>
<path d="M24.0195 50.4707H26.2235V52.6747H24.0195V50.4707Z" fill="#303E48"/>
<path d="M19.6133 37.2461H21.8172V39.4501H19.6133V37.2461Z" fill="#303E48"/>
<path d="M19.6133 32.8379H21.8172V35.0419H19.6133V32.8379Z" fill="#303E48"/>
<path d="M19.6133 41.6543H21.8172V43.8583H19.6133V41.6543Z" fill="#303E48"/>
<path d="M19.6133 46.0625H21.8172V48.2665H19.6133V46.0625Z" fill="#303E48"/>
<path d="M60.3849 52.6744C59.8006 52.6737 59.2404 52.4413 58.8272 52.0281C58.4141 51.6149 58.1816 51.0548 58.181 50.4704H55.977C55.977 51.3422 56.2355 52.1945 56.7199 52.9194C57.2042 53.6442 57.8926 54.2092 58.6981 54.5428C59.5035 54.8765 60.3898 54.9638 61.2449 54.7937C62.0999 54.6236 62.8853 54.2038 63.5018 53.5873C64.1183 52.9709 64.5381 52.1854 64.7082 51.3304C64.8782 50.4753 64.7909 49.589 64.4573 48.7836C64.1237 47.9781 63.5587 47.2897 62.8338 46.8054C62.109 46.321 61.2567 46.0625 60.3849 46.0625H54.875V48.2665H60.3849C60.9694 48.2665 61.53 48.4987 61.9434 48.912C62.3567 49.3253 62.5889 49.8859 62.5889 50.4704C62.5889 51.055 62.3567 51.6156 61.9434 52.0289C61.53 52.4422 60.9694 52.6744 60.3849 52.6744Z" fill="#3FB3DD"/>
<path d="M62.5889 30.6348C61.4202 30.6361 60.2998 31.1009 59.4735 31.9273C58.6471 32.7536 58.1823 33.874 58.181 35.0427H60.3849C60.3849 34.6068 60.5142 34.1807 60.7564 33.8182C60.9985 33.4558 61.3427 33.1733 61.7455 33.0065C62.1482 32.8397 62.5913 32.796 63.0189 32.8811C63.4464 32.9661 63.8391 33.176 64.1473 33.4843C64.4556 33.7925 64.6655 34.1852 64.7505 34.6127C64.8355 35.0403 64.7919 35.4834 64.6251 35.8861C64.4583 36.2888 64.1758 36.6331 63.8133 36.8752C63.4509 37.1174 63.0248 37.2467 62.5889 37.2467H54.875V39.4506H62.5889C63.7579 39.4506 64.8791 38.9862 65.7058 38.1596C66.5324 37.3329 66.9968 36.2118 66.9968 35.0427C66.9968 33.8736 66.5324 32.7525 65.7058 31.9258C64.8791 31.0992 63.7579 30.6348 62.5889 30.6348Z" fill="#3FB3DD"/>
<path d="M54.875 41.6543H66.9968V43.8583H54.875V41.6543Z" fill="#3FB3DD"/>
<path d="M7.49388 48.2665H13.0038V46.0625H7.49388C6.62207 46.0625 5.76984 46.321 5.04496 46.8054C4.32008 47.2897 3.7551 47.9781 3.42147 48.7836C3.08785 49.589 3.00056 50.4753 3.17064 51.3304C3.34072 52.1854 3.76053 52.9709 4.37699 53.5873C4.99345 54.2038 5.77887 54.6236 6.63393 54.7937C7.48899 54.9638 8.37528 54.8765 9.18072 54.5428C9.98617 54.2092 10.6746 53.6442 11.1589 52.9194C11.6433 52.1945 11.9018 51.3422 11.9018 50.4704H9.69784C9.69784 50.9063 9.56858 51.3325 9.32641 51.6949C9.08423 52.0573 8.74002 52.3398 8.3373 52.5066C7.93458 52.6735 7.49143 52.7171 7.0639 52.6321C6.63637 52.547 6.24366 52.3371 5.93543 52.0289C5.6272 51.7206 5.4173 51.3279 5.33226 50.9004C5.24722 50.4729 5.29086 50.0297 5.45767 49.627C5.62449 49.2243 5.90698 48.8801 6.26942 48.6379C6.63186 48.3957 7.05797 48.2665 7.49388 48.2665Z" fill="#3FB3DD"/>
<path d="M5.28684 39.4506H13.0007V37.2467H5.28684C4.85094 37.2467 4.42483 37.1174 4.06239 36.8752C3.69994 36.6331 3.41746 36.2888 3.25064 35.8861C3.08383 35.4834 3.04018 35.0403 3.12522 34.6127C3.21027 34.1852 3.42017 33.7925 3.7284 33.4843C4.03663 33.176 4.42934 32.9661 4.85687 32.8811C5.2844 32.796 5.72754 32.8397 6.13027 33.0065C6.53299 33.1733 6.8772 33.4558 7.11938 33.8182C7.36155 34.1807 7.49081 34.6068 7.49081 35.0427H9.69478C9.69478 34.1709 9.43626 33.3187 8.95191 32.5938C8.46756 31.8689 7.77913 31.3039 6.97369 30.9703C6.16824 30.6367 5.28195 30.5494 4.4269 30.7195C3.57184 30.8895 2.78642 31.3094 2.16996 31.9258C1.5535 32.5423 1.13369 33.3277 0.963605 34.1828C0.793524 35.0378 0.880816 35.9241 1.21444 36.7295C1.54807 37.535 2.11304 38.2234 2.83793 38.7078C3.56281 39.1921 4.41504 39.4506 5.28684 39.4506Z" fill="#3FB3DD"/>
<path d="M0.878906 41.6543H13.0007V43.8583H0.878906V41.6543Z" fill="#3FB3DD"/>
<path d="M36.8967 26.2831C34.9764 26.9191 32.9022 26.9191 30.9818 26.2831C30.7045 26.1907 30.4019 26.2122 30.1405 26.3429C29.879 26.4736 29.6802 26.7028 29.5878 26.9801C29.4954 27.2574 29.5169 27.5601 29.6476 27.8215C29.7783 28.0829 30.0075 28.2817 30.2848 28.3741C32.6578 29.1597 35.2207 29.1597 37.5937 28.3741C37.871 28.2817 38.1002 28.0829 38.2309 27.8215C38.3616 27.5601 38.3832 27.2574 38.2907 26.9801C38.1983 26.7028 37.9995 26.4736 37.7381 26.3429C37.4766 26.2122 37.174 26.1907 36.8967 26.2831Z" fill="#3FB3DD"/>
</svg>
